<?xml version="1.0" encoding="UTF-8"?>
<svg xmlns="http://www.w3.org/2000/svg" xmlns:xlink="http://www.w3.org/1999/xlink" width="512" height="115" viewBox="0 0 512 115">
<defs>
<g>
<g id="glyph-0-0">
<path d="M 0 3.359375 L 0 -13.625 L 8.40625 -13.625 L 8.40625 3.359375 Z M 0 3.359375 "/>
</g>
<g id="glyph-0-1">
<path d="M 4.9375 3.4375 L 4.9375 -5.859375 L -0.078125 -5.859375 L -0.078125 -6.859375 L 5.9375 -6.859375 L 5.9375 3.4375 Z M 2.484375 3.4375 L 2.484375 -3.40625 L -0.078125 -3.40625 L -0.078125 -4.390625 L 3.46875 -4.390625 L 3.46875 3.4375 Z M 2.484375 3.4375 "/>
</g>
<g id="glyph-0-2">
</g>
<g id="glyph-0-3">
<path d="M 4.9375 3.4375 L 4.9375 -13.703125 L 5.9375 -13.703125 L 5.9375 3.4375 Z M 2.46875 3.4375 L 2.46875 -13.703125 L 3.453125 -13.703125 L 3.453125 3.4375 Z M 2.46875 3.4375 "/>
</g>
<g id="glyph-0-4">
<path d="M 2.46875 3.4375 L 2.46875 -6.859375 L 8.484375 -6.859375 L 8.484375 -5.859375 L 3.453125 -5.859375 L 3.453125 3.4375 Z M 4.921875 3.4375 L 4.921875 -4.390625 L 8.484375 -4.390625 L 8.484375 -3.40625 L 5.921875 -3.40625 L 5.921875 3.4375 Z M 4.921875 3.4375 "/>
</g>
<g id="glyph-0-5">
<path d="M -0.078125 -5.859375 L -0.078125 -6.859375 L 8.484375 -6.859375 L 8.484375 -5.859375 Z M -0.078125 -3.40625 L -0.078125 -4.390625 L 8.484375 -4.390625 L 8.484375 -3.40625 Z M -0.078125 -3.40625 "/>
</g>
<g id="glyph-0-6">
<path d="M 2.46875 -3.40625 L 2.46875 -13.703125 L 3.453125 -13.703125 L 3.453125 -4.390625 L 8.484375 -4.390625 L 8.484375 -3.40625 Z M 4.921875 -5.859375 L 4.921875 -13.703125 L 5.921875 -13.703125 L 5.921875 -6.859375 L 8.484375 -6.859375 L 8.484375 -5.859375 Z M 4.921875 -5.859375 "/>
</g>
<g id="glyph-0-7">
<path d="M -0.078125 -3.40625 L -0.078125 -4.390625 L 4.9375 -4.390625 L 4.9375 -13.703125 L 5.9375 -13.703125 L 5.9375 -3.40625 Z M -0.078125 -5.859375 L -0.078125 -6.859375 L 2.484375 -6.859375 L 2.484375 -13.703125 L 3.46875 -13.703125 L 3.46875 -5.859375 Z M -0.078125 -5.859375 "/>
</g>
</g>
</defs>
<g fill="rgb(3.137255%, 56.862745%, 69.803922%)" fill-opacity="1">
<use xlink:href="#glyph-0-0" x="0" y="14.96582"/>
<use xlink:href="#glyph-0-0" x="8" y="14.96582"/>
<use xlink:href="#glyph-0-1" x="16" y="14.96582"/>
<use xlink:href="#glyph-0-2" x="24" y="14.96582"/>
<use xlink:href="#glyph-0-2" x="32" y="14.96582"/>
<use xlink:href="#glyph-0-2" x="40" y="14.96582"/>
<use xlink:href="#glyph-0-2" x="48" y="14.96582"/>
<use xlink:href="#glyph-0-0" x="56" y="14.96582"/>
<use xlink:href="#glyph-0-0" x="64" y="14.96582"/>
<use xlink:href="#glyph-0-1" x="72" y="14.96582"/>
<use xlink:href="#glyph-0-2" x="80" y="14.96582"/>
<use xlink:href="#glyph-0-0" x="88" y="14.96582"/>
<use xlink:href="#glyph-0-0" x="96" y="14.96582"/>
<use xlink:href="#glyph-0-0" x="104" y="14.96582"/>
<use xlink:href="#glyph-0-0" x="112" y="14.96582"/>
<use xlink:href="#glyph-0-0" x="120" y="14.96582"/>
<use xlink:href="#glyph-0-1" x="128" y="14.96582"/>
<use xlink:href="#glyph-0-2" x="136" y="14.96582"/>
<use xlink:href="#glyph-0-0" x="144" y="14.96582"/>
<use xlink:href="#glyph-0-0" x="152" y="14.96582"/>
<use xlink:href="#glyph-0-0" x="160" y="14.96582"/>
<use xlink:href="#glyph-0-0" x="168" y="14.96582"/>
<use xlink:href="#glyph-0-0" x="176" y="14.96582"/>
<use xlink:href="#glyph-0-0" x="184" y="14.96582"/>
<use xlink:href="#glyph-0-0" x="192" y="14.96582"/>
<use xlink:href="#glyph-0-0" x="200" y="14.96582"/>
<use xlink:href="#glyph-0-1" x="208" y="14.96582"/>
<use xlink:href="#glyph-0-0" x="216" y="14.96582"/>
<use xlink:href="#glyph-0-0" x="224" y="14.96582"/>
<use xlink:href="#glyph-0-0" x="232" y="14.96582"/>
<use xlink:href="#glyph-0-0" x="240" y="14.96582"/>
<use xlink:href="#glyph-0-0" x="248" y="14.96582"/>
<use xlink:href="#glyph-0-0" x="256" y="14.96582"/>
<use xlink:href="#glyph-0-0" x="264" y="14.96582"/>
<use xlink:href="#glyph-0-1" x="272" y="14.96582"/>
<use xlink:href="#glyph-0-0" x="280" y="14.96582"/>
<use xlink:href="#glyph-0-0" x="288" y="14.96582"/>
<use xlink:href="#glyph-0-0" x="296" y="14.96582"/>
<use xlink:href="#glyph-0-0" x="304" y="14.96582"/>
<use xlink:href="#glyph-0-0" x="312" y="14.96582"/>
<use xlink:href="#glyph-0-0" x="320" y="14.96582"/>
<use xlink:href="#glyph-0-1" x="328" y="14.96582"/>
<use xlink:href="#glyph-0-2" x="336" y="14.96582"/>
<use xlink:href="#glyph-0-2" x="344" y="14.96582"/>
<use xlink:href="#glyph-0-2" x="352" y="14.96582"/>
<use xlink:href="#glyph-0-2" x="360" y="14.96582"/>
<use xlink:href="#glyph-0-2" x="368" y="14.96582"/>
<use xlink:href="#glyph-0-2" x="376" y="14.96582"/>
<use xlink:href="#glyph-0-0" x="384" y="14.96582"/>
<use xlink:href="#glyph-0-0" x="392" y="14.96582"/>
<use xlink:href="#glyph-0-0" x="400" y="14.96582"/>
<use xlink:href="#glyph-0-0" x="408" y="14.96582"/>
<use xlink:href="#glyph-0-0" x="416" y="14.96582"/>
<use xlink:href="#glyph-0-0" x="424" y="14.96582"/>
<use xlink:href="#glyph-0-1" x="432" y="14.96582"/>
<use xlink:href="#glyph-0-2" x="440" y="14.96582"/>
<use xlink:href="#glyph-0-0" x="448" y="14.96582"/>
<use xlink:href="#glyph-0-0" x="456" y="14.96582"/>
<use xlink:href="#glyph-0-0" x="464" y="14.96582"/>
<use xlink:href="#glyph-0-0" x="472" y="14.96582"/>
<use xlink:href="#glyph-0-0" x="480" y="14.96582"/>
<use xlink:href="#glyph-0-0" x="488" y="14.96582"/>
<use xlink:href="#glyph-0-0" x="496" y="14.96582"/>
<use xlink:href="#glyph-0-1" x="504" y="14.96582"/>
</g>
<g fill="rgb(3.137255%, 56.862745%, 69.803922%)" fill-opacity="1">
<use xlink:href="#glyph-0-0" x="0" y="34.033203"/>
<use xlink:href="#glyph-0-0" x="8" y="34.033203"/>
<use xlink:href="#glyph-0-3" x="16" y="34.033203"/>
<use xlink:href="#glyph-0-2" x="24" y="34.033203"/>
<use xlink:href="#glyph-0-2" x="32" y="34.033203"/>
<use xlink:href="#glyph-0-2" x="40" y="34.033203"/>
<use xlink:href="#glyph-0-2" x="48" y="34.033203"/>
<use xlink:href="#glyph-0-0" x="56" y="34.033203"/>
<use xlink:href="#glyph-0-0" x="64" y="34.033203"/>
<use xlink:href="#glyph-0-3" x="72" y="34.033203"/>
<use xlink:href="#glyph-0-0" x="80" y="34.033203"/>
<use xlink:href="#glyph-0-0" x="88" y="34.033203"/>
<use xlink:href="#glyph-0-4" x="96" y="34.033203"/>
<use xlink:href="#glyph-0-5" x="104" y="34.033203"/>
<use xlink:href="#glyph-0-5" x="112" y="34.033203"/>
<use xlink:href="#glyph-0-0" x="120" y="34.033203"/>
<use xlink:href="#glyph-0-0" x="128" y="34.033203"/>
<use xlink:href="#glyph-0-1" x="136" y="34.033203"/>
<use xlink:href="#glyph-0-6" x="144" y="34.033203"/>
<use xlink:href="#glyph-0-5" x="152" y="34.033203"/>
<use xlink:href="#glyph-0-5" x="160" y="34.033203"/>
<use xlink:href="#glyph-0-0" x="168" y="34.033203"/>
<use xlink:href="#glyph-0-0" x="176" y="34.033203"/>
<use xlink:href="#glyph-0-4" x="184" y="34.033203"/>
<use xlink:href="#glyph-0-5" x="192" y="34.033203"/>
<use xlink:href="#glyph-0-5" x="200" y="34.033203"/>
<use xlink:href="#glyph-0-7" x="208" y="34.033203"/>
<use xlink:href="#glyph-0-0" x="216" y="34.033203"/>
<use xlink:href="#glyph-0-0" x="224" y="34.033203"/>
<use xlink:href="#glyph-0-4" x="232" y="34.033203"/>
<use xlink:href="#glyph-0-5" x="240" y="34.033203"/>
<use xlink:href="#glyph-0-5" x="248" y="34.033203"/>
<use xlink:href="#glyph-0-5" x="256" y="34.033203"/>
<use xlink:href="#glyph-0-5" x="264" y="34.033203"/>
<use xlink:href="#glyph-0-7" x="272" y="34.033203"/>
<use xlink:href="#glyph-0-0" x="280" y="34.033203"/>
<use xlink:href="#glyph-0-0" x="288" y="34.033203"/>
<use xlink:href="#glyph-0-4" x="296" y="34.033203"/>
<use xlink:href="#glyph-0-5" x="304" y="34.033203"/>
<use xlink:href="#glyph-0-5" x="312" y="34.033203"/>
<use xlink:href="#glyph-0-0" x="320" y="34.033203"/>
<use xlink:href="#glyph-0-0" x="328" y="34.033203"/>
<use xlink:href="#glyph-0-1" x="336" y="34.033203"/>
<use xlink:href="#glyph-0-2" x="344" y="34.033203"/>
<use xlink:href="#glyph-0-2" x="352" y="34.033203"/>
<use xlink:href="#glyph-0-2" x="360" y="34.033203"/>
<use xlink:href="#glyph-0-2" x="368" y="34.033203"/>
<use xlink:href="#glyph-0-0" x="376" y="34.033203"/>
<use xlink:href="#glyph-0-0" x="384" y="34.033203"/>
<use xlink:href="#glyph-0-4" x="392" y="34.033203"/>
<use xlink:href="#glyph-0-5" x="400" y="34.033203"/>
<use xlink:href="#glyph-0-5" x="408" y="34.033203"/>
<use xlink:href="#glyph-0-5" x="416" y="34.033203"/>
<use xlink:href="#glyph-0-0" x="424" y="34.033203"/>
<use xlink:href="#glyph-0-0" x="432" y="34.033203"/>
<use xlink:href="#glyph-0-1" x="440" y="34.033203"/>
<use xlink:href="#glyph-0-0" x="448" y="34.033203"/>
<use xlink:href="#glyph-0-0" x="456" y="34.033203"/>
<use xlink:href="#glyph-0-4" x="464" y="34.033203"/>
<use xlink:href="#glyph-0-5" x="472" y="34.033203"/>
<use xlink:href="#glyph-0-5" x="480" y="34.033203"/>
<use xlink:href="#glyph-0-5" x="488" y="34.033203"/>
<use xlink:href="#glyph-0-5" x="496" y="34.033203"/>
<use xlink:href="#glyph-0-7" x="504" y="34.033203"/>
</g>
<g fill="rgb(3.137255%, 56.862745%, 69.803922%)" fill-opacity="1">
<use xlink:href="#glyph-0-0" x="0" y="53.100586"/>
<use xlink:href="#glyph-0-0" x="8" y="53.100586"/>
<use xlink:href="#glyph-0-3" x="16" y="53.100586"/>
<use xlink:href="#glyph-0-2" x="24" y="53.100586"/>
<use xlink:href="#glyph-0-0" x="32" y="53.100586"/>
<use xlink:href="#glyph-0-1" x="40" y="53.100586"/>
<use xlink:href="#glyph-0-2" x="48" y="53.100586"/>
<use xlink:href="#glyph-0-0" x="56" y="53.100586"/>
<use xlink:href="#glyph-0-0" x="64" y="53.100586"/>
<use xlink:href="#glyph-0-3" x="72" y="53.100586"/>
<use xlink:href="#glyph-0-0" x="80" y="53.100586"/>
<use xlink:href="#glyph-0-0" x="88" y="53.100586"/>
<use xlink:href="#glyph-0-0" x="96" y="53.100586"/>
<use xlink:href="#glyph-0-0" x="104" y="53.100586"/>
<use xlink:href="#glyph-0-0" x="112" y="53.100586"/>
<use xlink:href="#glyph-0-0" x="120" y="53.100586"/>
<use xlink:href="#glyph-0-0" x="128" y="53.100586"/>
<use xlink:href="#glyph-0-3" x="136" y="53.100586"/>
<use xlink:href="#glyph-0-2" x="144" y="53.100586"/>
<use xlink:href="#glyph-0-2" x="152" y="53.100586"/>
<use xlink:href="#glyph-0-2" x="160" y="53.100586"/>
<use xlink:href="#glyph-0-0" x="168" y="53.100586"/>
<use xlink:href="#glyph-0-0" x="176" y="53.100586"/>
<use xlink:href="#glyph-0-3" x="184" y="53.100586"/>
<use xlink:href="#glyph-0-2" x="192" y="53.100586"/>
<use xlink:href="#glyph-0-2" x="200" y="53.100586"/>
<use xlink:href="#glyph-0-2" x="208" y="53.100586"/>
<use xlink:href="#glyph-0-0" x="216" y="53.100586"/>
<use xlink:href="#glyph-0-0" x="224" y="53.100586"/>
<use xlink:href="#glyph-0-0" x="232" y="53.100586"/>
<use xlink:href="#glyph-0-0" x="240" y="53.100586"/>
<use xlink:href="#glyph-0-0" x="248" y="53.100586"/>
<use xlink:href="#glyph-0-1" x="256" y="53.100586"/>
<use xlink:href="#glyph-0-2" x="264" y="53.100586"/>
<use xlink:href="#glyph-0-2" x="272" y="53.100586"/>
<use xlink:href="#glyph-0-0" x="280" y="53.100586"/>
<use xlink:href="#glyph-0-0" x="288" y="53.100586"/>
<use xlink:href="#glyph-0-0" x="296" y="53.100586"/>
<use xlink:href="#glyph-0-0" x="304" y="53.100586"/>
<use xlink:href="#glyph-0-0" x="312" y="53.100586"/>
<use xlink:href="#glyph-0-0" x="320" y="53.100586"/>
<use xlink:href="#glyph-0-4" x="328" y="53.100586"/>
<use xlink:href="#glyph-0-7" x="336" y="53.100586"/>
<use xlink:href="#glyph-0-2" x="344" y="53.100586"/>
<use xlink:href="#glyph-0-2" x="352" y="53.100586"/>
<use xlink:href="#glyph-0-2" x="360" y="53.100586"/>
<use xlink:href="#glyph-0-2" x="368" y="53.100586"/>
<use xlink:href="#glyph-0-0" x="376" y="53.100586"/>
<use xlink:href="#glyph-0-0" x="384" y="53.100586"/>
<use xlink:href="#glyph-0-3" x="392" y="53.100586"/>
<use xlink:href="#glyph-0-2" x="400" y="53.100586"/>
<use xlink:href="#glyph-0-2" x="408" y="53.100586"/>
<use xlink:href="#glyph-0-2" x="416" y="53.100586"/>
<use xlink:href="#glyph-0-0" x="424" y="53.100586"/>
<use xlink:href="#glyph-0-0" x="432" y="53.100586"/>
<use xlink:href="#glyph-0-3" x="440" y="53.100586"/>
<use xlink:href="#glyph-0-0" x="448" y="53.100586"/>
<use xlink:href="#glyph-0-0" x="456" y="53.100586"/>
<use xlink:href="#glyph-0-0" x="464" y="53.100586"/>
<use xlink:href="#glyph-0-0" x="472" y="53.100586"/>
<use xlink:href="#glyph-0-0" x="480" y="53.100586"/>
<use xlink:href="#glyph-0-0" x="488" y="53.100586"/>
<use xlink:href="#glyph-0-0" x="496" y="53.100586"/>
<use xlink:href="#glyph-0-1" x="504" y="53.100586"/>
</g>
<g fill="rgb(3.137255%, 56.862745%, 69.803922%)" fill-opacity="1">
<use xlink:href="#glyph-0-0" x="0" y="72.167969"/>
<use xlink:href="#glyph-0-0" x="8" y="72.167969"/>
<use xlink:href="#glyph-0-3" x="16" y="72.167969"/>
<use xlink:href="#glyph-0-0" x="24" y="72.167969"/>
<use xlink:href="#glyph-0-0" x="32" y="72.167969"/>
<use xlink:href="#glyph-0-0" x="40" y="72.167969"/>
<use xlink:href="#glyph-0-1" x="48" y="72.167969"/>
<use xlink:href="#glyph-0-0" x="56" y="72.167969"/>
<use xlink:href="#glyph-0-0" x="64" y="72.167969"/>
<use xlink:href="#glyph-0-3" x="72" y="72.167969"/>
<use xlink:href="#glyph-0-0" x="80" y="72.167969"/>
<use xlink:href="#glyph-0-0" x="88" y="72.167969"/>
<use xlink:href="#glyph-0-4" x="96" y="72.167969"/>
<use xlink:href="#glyph-0-5" x="104" y="72.167969"/>
<use xlink:href="#glyph-0-5" x="112" y="72.167969"/>
<use xlink:href="#glyph-0-0" x="120" y="72.167969"/>
<use xlink:href="#glyph-0-0" x="128" y="72.167969"/>
<use xlink:href="#glyph-0-3" x="136" y="72.167969"/>
<use xlink:href="#glyph-0-2" x="144" y="72.167969"/>
<use xlink:href="#glyph-0-2" x="152" y="72.167969"/>
<use xlink:href="#glyph-0-2" x="160" y="72.167969"/>
<use xlink:href="#glyph-0-0" x="168" y="72.167969"/>
<use xlink:href="#glyph-0-0" x="176" y="72.167969"/>
<use xlink:href="#glyph-0-3" x="184" y="72.167969"/>
<use xlink:href="#glyph-0-2" x="192" y="72.167969"/>
<use xlink:href="#glyph-0-2" x="200" y="72.167969"/>
<use xlink:href="#glyph-0-2" x="208" y="72.167969"/>
<use xlink:href="#glyph-0-0" x="216" y="72.167969"/>
<use xlink:href="#glyph-0-0" x="224" y="72.167969"/>
<use xlink:href="#glyph-0-4" x="232" y="72.167969"/>
<use xlink:href="#glyph-0-5" x="240" y="72.167969"/>
<use xlink:href="#glyph-0-5" x="248" y="72.167969"/>
<use xlink:href="#glyph-0-7" x="256" y="72.167969"/>
<use xlink:href="#glyph-0-2" x="264" y="72.167969"/>
<use xlink:href="#glyph-0-2" x="272" y="72.167969"/>
<use xlink:href="#glyph-0-0" x="280" y="72.167969"/>
<use xlink:href="#glyph-0-0" x="288" y="72.167969"/>
<use xlink:href="#glyph-0-4" x="296" y="72.167969"/>
<use xlink:href="#glyph-0-5" x="304" y="72.167969"/>
<use xlink:href="#glyph-0-5" x="312" y="72.167969"/>
<use xlink:href="#glyph-0-0" x="320" y="72.167969"/>
<use xlink:href="#glyph-0-0" x="328" y="72.167969"/>
<use xlink:href="#glyph-0-1" x="336" y="72.167969"/>
<use xlink:href="#glyph-0-2" x="344" y="72.167969"/>
<use xlink:href="#glyph-0-2" x="352" y="72.167969"/>
<use xlink:href="#glyph-0-2" x="360" y="72.167969"/>
<use xlink:href="#glyph-0-2" x="368" y="72.167969"/>
<use xlink:href="#glyph-0-0" x="376" y="72.167969"/>
<use xlink:href="#glyph-0-0" x="384" y="72.167969"/>
<use xlink:href="#glyph-0-3" x="392" y="72.167969"/>
<use xlink:href="#glyph-0-2" x="400" y="72.167969"/>
<use xlink:href="#glyph-0-2" x="408" y="72.167969"/>
<use xlink:href="#glyph-0-2" x="416" y="72.167969"/>
<use xlink:href="#glyph-0-0" x="424" y="72.167969"/>
<use xlink:href="#glyph-0-0" x="432" y="72.167969"/>
<use xlink:href="#glyph-0-3" x="440" y="72.167969"/>
<use xlink:href="#glyph-0-6" x="448" y="72.167969"/>
<use xlink:href="#glyph-0-5" x="456" y="72.167969"/>
<use xlink:href="#glyph-0-5" x="464" y="72.167969"/>
<use xlink:href="#glyph-0-5" x="472" y="72.167969"/>
<use xlink:href="#glyph-0-5" x="480" y="72.167969"/>
<use xlink:href="#glyph-0-0" x="488" y="72.167969"/>
<use xlink:href="#glyph-0-0" x="496" y="72.167969"/>
<use xlink:href="#glyph-0-3" x="504" y="72.167969"/>
</g>
<g fill="rgb(3.137255%, 56.862745%, 69.803922%)" fill-opacity="1">
<use xlink:href="#glyph-0-6" x="0" y="91.235352"/>
<use xlink:href="#glyph-0-0" x="8" y="91.235352"/>
<use xlink:href="#glyph-0-0" x="16" y="91.235352"/>
<use xlink:href="#glyph-0-0" x="24" y="91.235352"/>
<use xlink:href="#glyph-0-4" x="32" y="91.235352"/>
<use xlink:href="#glyph-0-0" x="40" y="91.235352"/>
<use xlink:href="#glyph-0-0" x="48" y="91.235352"/>
<use xlink:href="#glyph-0-0" x="56" y="91.235352"/>
<use xlink:href="#glyph-0-4" x="64" y="91.235352"/>
<use xlink:href="#glyph-0-7" x="72" y="91.235352"/>
<use xlink:href="#glyph-0-0" x="80" y="91.235352"/>
<use xlink:href="#glyph-0-0" x="88" y="91.235352"/>
<use xlink:href="#glyph-0-3" x="96" y="91.235352"/>
<use xlink:href="#glyph-0-2" x="104" y="91.235352"/>
<use xlink:href="#glyph-0-2" x="112" y="91.235352"/>
<use xlink:href="#glyph-0-0" x="120" y="91.235352"/>
<use xlink:href="#glyph-0-0" x="128" y="91.235352"/>
<use xlink:href="#glyph-0-3" x="136" y="91.235352"/>
<use xlink:href="#glyph-0-2" x="144" y="91.235352"/>
<use xlink:href="#glyph-0-2" x="152" y="91.235352"/>
<use xlink:href="#glyph-0-2" x="160" y="91.235352"/>
<use xlink:href="#glyph-0-0" x="168" y="91.235352"/>
<use xlink:href="#glyph-0-0" x="176" y="91.235352"/>
<use xlink:href="#glyph-0-3" x="184" y="91.235352"/>
<use xlink:href="#glyph-0-2" x="192" y="91.235352"/>
<use xlink:href="#glyph-0-2" x="200" y="91.235352"/>
<use xlink:href="#glyph-0-2" x="208" y="91.235352"/>
<use xlink:href="#glyph-0-0" x="216" y="91.235352"/>
<use xlink:href="#glyph-0-0" x="224" y="91.235352"/>
<use xlink:href="#glyph-0-0" x="232" y="91.235352"/>
<use xlink:href="#glyph-0-0" x="240" y="91.235352"/>
<use xlink:href="#glyph-0-0" x="248" y="91.235352"/>
<use xlink:href="#glyph-0-0" x="256" y="91.235352"/>
<use xlink:href="#glyph-0-0" x="264" y="91.235352"/>
<use xlink:href="#glyph-0-1" x="272" y="91.235352"/>
<use xlink:href="#glyph-0-0" x="280" y="91.235352"/>
<use xlink:href="#glyph-0-0" x="288" y="91.235352"/>
<use xlink:href="#glyph-0-3" x="296" y="91.235352"/>
<use xlink:href="#glyph-0-2" x="304" y="91.235352"/>
<use xlink:href="#glyph-0-2" x="312" y="91.235352"/>
<use xlink:href="#glyph-0-0" x="320" y="91.235352"/>
<use xlink:href="#glyph-0-0" x="328" y="91.235352"/>
<use xlink:href="#glyph-0-3" x="336" y="91.235352"/>
<use xlink:href="#glyph-0-2" x="344" y="91.235352"/>
<use xlink:href="#glyph-0-2" x="352" y="91.235352"/>
<use xlink:href="#glyph-0-2" x="360" y="91.235352"/>
<use xlink:href="#glyph-0-2" x="368" y="91.235352"/>
<use xlink:href="#glyph-0-6" x="376" y="91.235352"/>
<use xlink:href="#glyph-0-0" x="384" y="91.235352"/>
<use xlink:href="#glyph-0-0" x="392" y="91.235352"/>
<use xlink:href="#glyph-0-0" x="400" y="91.235352"/>
<use xlink:href="#glyph-0-0" x="408" y="91.235352"/>
<use xlink:href="#glyph-0-0" x="416" y="91.235352"/>
<use xlink:href="#glyph-0-0" x="424" y="91.235352"/>
<use xlink:href="#glyph-0-4" x="432" y="91.235352"/>
<use xlink:href="#glyph-0-7" x="440" y="91.235352"/>
<use xlink:href="#glyph-0-0" x="448" y="91.235352"/>
<use xlink:href="#glyph-0-0" x="456" y="91.235352"/>
<use xlink:href="#glyph-0-0" x="464" y="91.235352"/>
<use xlink:href="#glyph-0-0" x="472" y="91.235352"/>
<use xlink:href="#glyph-0-0" x="480" y="91.235352"/>
<use xlink:href="#glyph-0-0" x="488" y="91.235352"/>
<use xlink:href="#glyph-0-0" x="496" y="91.235352"/>
<use xlink:href="#glyph-0-3" x="504" y="91.235352"/>
</g>
<g fill="rgb(3.137255%, 56.862745%, 69.803922%)" fill-opacity="1">
<use xlink:href="#glyph-0-2" x="0" y="110.302734"/>
<use xlink:href="#glyph-0-6" x="8" y="110.302734"/>
<use xlink:href="#glyph-0-5" x="16" y="110.302734"/>
<use xlink:href="#glyph-0-5" x="24" y="110.302734"/>
<use xlink:href="#glyph-0-7" x="32" y="110.302734"/>
<use xlink:href="#glyph-0-6" x="40" y="110.302734"/>
<use xlink:href="#glyph-0-5" x="48" y="110.302734"/>
<use xlink:href="#glyph-0-5" x="56" y="110.302734"/>
<use xlink:href="#glyph-0-7" x="64" y="110.302734"/>
<use xlink:href="#glyph-0-2" x="72" y="110.302734"/>
<use xlink:href="#glyph-0-6" x="80" y="110.302734"/>
<use xlink:href="#glyph-0-5" x="88" y="110.302734"/>
<use xlink:href="#glyph-0-7" x="96" y="110.302734"/>
<use xlink:href="#glyph-0-2" x="104" y="110.302734"/>
<use xlink:href="#glyph-0-2" x="112" y="110.302734"/>
<use xlink:href="#glyph-0-6" x="120" y="110.302734"/>
<use xlink:href="#glyph-0-5" x="128" y="110.302734"/>
<use xlink:href="#glyph-0-7" x="136" y="110.302734"/>
<use xlink:href="#glyph-0-2" x="144" y="110.302734"/>
<use xlink:href="#glyph-0-2" x="152" y="110.302734"/>
<use xlink:href="#glyph-0-2" x="160" y="110.302734"/>
<use xlink:href="#glyph-0-6" x="168" y="110.302734"/>
<use xlink:href="#glyph-0-5" x="176" y="110.302734"/>
<use xlink:href="#glyph-0-7" x="184" y="110.302734"/>
<use xlink:href="#glyph-0-2" x="192" y="110.302734"/>
<use xlink:href="#glyph-0-2" x="200" y="110.302734"/>
<use xlink:href="#glyph-0-2" x="208" y="110.302734"/>
<use xlink:href="#glyph-0-6" x="216" y="110.302734"/>
<use xlink:href="#glyph-0-5" x="224" y="110.302734"/>
<use xlink:href="#glyph-0-5" x="232" y="110.302734"/>
<use xlink:href="#glyph-0-5" x="240" y="110.302734"/>
<use xlink:href="#glyph-0-5" x="248" y="110.302734"/>
<use xlink:href="#glyph-0-5" x="256" y="110.302734"/>
<use xlink:href="#glyph-0-5" x="264" y="110.302734"/>
<use xlink:href="#glyph-0-7" x="272" y="110.302734"/>
<use xlink:href="#glyph-0-6" x="280" y="110.302734"/>
<use xlink:href="#glyph-0-5" x="288" y="110.302734"/>
<use xlink:href="#glyph-0-7" x="296" y="110.302734"/>
<use xlink:href="#glyph-0-2" x="304" y="110.302734"/>
<use xlink:href="#glyph-0-2" x="312" y="110.302734"/>
<use xlink:href="#glyph-0-6" x="320" y="110.302734"/>
<use xlink:href="#glyph-0-5" x="328" y="110.302734"/>
<use xlink:href="#glyph-0-7" x="336" y="110.302734"/>
<use xlink:href="#glyph-0-2" x="344" y="110.302734"/>
<use xlink:href="#glyph-0-2" x="352" y="110.302734"/>
<use xlink:href="#glyph-0-2" x="360" y="110.302734"/>
<use xlink:href="#glyph-0-2" x="368" y="110.302734"/>
<use xlink:href="#glyph-0-2" x="376" y="110.302734"/>
<use xlink:href="#glyph-0-6" x="384" y="110.302734"/>
<use xlink:href="#glyph-0-5" x="392" y="110.302734"/>
<use xlink:href="#glyph-0-5" x="400" y="110.302734"/>
<use xlink:href="#glyph-0-5" x="408" y="110.302734"/>
<use xlink:href="#glyph-0-5" x="416" y="110.302734"/>
<use xlink:href="#glyph-0-5" x="424" y="110.302734"/>
<use xlink:href="#glyph-0-7" x="432" y="110.302734"/>
<use xlink:href="#glyph-0-2" x="440" y="110.302734"/>
<use xlink:href="#glyph-0-6" x="448" y="110.302734"/>
<use xlink:href="#glyph-0-5" x="456" y="110.302734"/>
<use xlink:href="#glyph-0-5" x="464" y="110.302734"/>
<use xlink:href="#glyph-0-5" x="472" y="110.302734"/>
<use xlink:href="#glyph-0-5" x="480" y="110.302734"/>
<use xlink:href="#glyph-0-5" x="488" y="110.302734"/>
<use xlink:href="#glyph-0-5" x="496" y="110.302734"/>
<use xlink:href="#glyph-0-7" x="504" y="110.302734"/>
</g>
</svg>
